# xmcd
#
# Track frame offsets:
#	150
#	11273
#	23901
#	34432
#	44015
#	55663
#	66145
#	76335
#	87644
#	99989
#
# Disc length: 1487 seconds
#
# Revision: 1
# Processed by: cddbd v1.5.2PL0 Copyright (c) Steve Scherf et al.
# Submitted via: audiograbber 1.83.01
#
DISCID=7a05cd0a
DTITLE=George Jones - I Get Lonely In A Hurry
DYEAR=1964
DGENRE=Country
TTITLE0=I Get Lonely In A Hurry
TTITLE1=Book Of Memories
TTITLE2=I'm Gonna Change Everything
TTITLE3=The Race Is On
TTITLE4=Least Of All
TTITLE5=I've Been Known To Cry
TTITLE6=Love's Gonna Live Here
TTITLE7=Gold And Silver
TTITLE8=She's Mine
TTITLE9=Where Does A Little Tear Come From
EXTD=
EXTT0=
EXTT1=
EXTT2=
EXTT3=
EXTT4=
EXTT5=
EXTT6=
EXTT7=
EXTT8=
EXTT9=
PLAYORDER=
